{
  "accessors": [
    {
      "bufferView": 2,
      "componentType": 5126,
      "count": 65533,
      "max": [
        289.3487854003906,
        197.12559509277344,
        139.11903381347656
      ],
      "min": [
        -121.44419860839844,
        -176.5727996826172,
        92.22309112548828
      ],
      "type": "VEC3"
    },
    {
      "bufferView": 0,
      "componentType": 5125,
      "count": 295890,
      "type": "SCALAR"
    },
    {
      "bufferView": 2,
      "byteOffset": 786396,
      "componentType": 5126,
      "count": 8656,
      "max": [
        155.9261016845703,
        136.2056121826172,
        110.9469985961914
      ],
      "min": [
        -10.128228187561035,
        -84.17068481445313,
        96.35730743408203
      ],
      "type": "VEC3"
    },
    {
      "bufferView": 0,
      "byteOffset": 1183560,
      "componentType": 5125,
      "count": 20508,
      "type": "SCALAR"
    },
    {
      "bufferView": 2,
      "byteOffset": 890268,
      "componentType": 5126,
      "count": 228,
      "max": [
        283.6398010253906,
        181.7946014404297,
        97.10759735107422
      ],
      "min": [
        -41.438201904296875,
        -131.53610229492188,
        92.22309875488281
      ],
      "type": "VEC3"
    },
    {
      "bufferView": 0,
      "byteOffset": 1265592,
      "componentType": 5125,
      "count": 366,
      "type": "SCALAR"
    },
    {
      "bufferView": 2,
      "byteOffset": 893004,
      "componentType": 5126,
      "count": 8,
      "max": [
        238.97300720214844,
        162.96690368652344,
        92.22309875488281
      ],
      "min": [
        -12.276989936828613,
        -108.59559631347656,
        92.22309875488281
      ],
      "type": "VEC3"
    },
    {
      "bufferView": 2,
      "byteOffset": 893100,
      "componentType": 5126,
      "count": 8,
      "max": [
        1.131211971662526e-16,
        0.0,
        1.0
      ],
      "min": [
        -1.131211971662526e-16,
        0.0,
        -1.0
      ],
      "type": "VEC3"
    },
    {
      "bufferView": 0,
      "byteOffset": 1267056,
      "componentType": 5125,
      "count": 12,
      "type": "SCALAR"
    },
    {
      "bufferView": 2,
      "byteOffset": 893196,
      "componentType": 5126,
      "count": 65532,
      "max": [
        175.93690490722656,
        136.2056121826172,
        107.87799072265625
      ],
      "min": [
        -8.172196388244629,
        -82.61070251464844,
        96.35729217529297
      ],
      "type": "VEC3"
    },
    {
      "bufferView": 2,
      "byteOffset": 1679580,
      "componentType": 5126,
      "count": 65532,
      "max": [
        1.0,
        1.0,
        1.0
      ],
      "min": [
        -1.0,
        -1.0,
        -1.0
      ],
      "type": "VEC3"
    },
    {
      "bufferView": 1,
      "componentType": 5126,
      "count": 65532,
      "max": [
        18.76512908935547,
        29.285400390625
      ],
      "min": [
        -30.594079971313477,
        -2.131628037873711e-14
      ],
      "type": "VEC2"
    },
    {
      "bufferView": 0,
      "byteOffset": 1267104,
      "componentType": 5125,
      "count": 183129,
      "type": "SCALAR"
    },
    {
      "bufferView": 2,
      "byteOffset": 2465964,
      "componentType": 5126,
      "count": 65532,
      "max": [
        155.9261016845703,
        136.2056121826172,
        109.41100311279297
      ],
      "min": [
        -7.551202297210693,
        -133.59829711914063,
        94.67379760742188
      ],
      "type": "VEC3"
    },
    {
      "bufferView": 2,
      "byteOffset": 3252348,
      "componentType": 5126,
      "count": 65532,
      "max": [
        1.0,
        1.0,
        1.0
      ],
      "min": [
        -1.0,
        -1.0,
        -1.0
      ],
      "type": "VEC3"
    },
    {
      "bufferView": 1,
      "byteOffset": 524256,
      "componentType": 5126,
      "count": 65532,
      "max": [
        26.27989959716797,
        30.59469985961914
      ],
      "min": [
        -30.594079971313477,
        -3.375077994860476e-14
      ],
      "type": "VEC2"
    },
    {
      "bufferView": 0,
      "byteOffset": 1999620,
      "componentType": 5125,
      "count": 183819,
      "type": "SCALAR"
    },
    {
      "bufferView": 2,
      "byteOffset": 4038732,
      "componentType": 5126,
      "count": 1841,
      "max": [
        174.3730926513672,
        130.0976104736328,
        107.19132232666016
      ],
      "min": [
        0.7188020348548889,
        -132.70059204101563,
        94.73619842529297
      ],
      "type": "VEC3"
    },
    {
      "bufferView": 2,
      "byteOffset": 4060824,
      "componentType": 5126,
      "count": 1841,
      "max": [
        1.0,
        1.0,
        1.0
      ],
      "min": [
        -1.0,
        -1.0,
        -1.0
      ],
      "type": "VEC3"
    },
    {
      "bufferView": 1,
      "byteOffset": 1048512,
      "componentType": 5126,
      "count": 1841,
      "max": [
        11.86989974975586,
        22.861099243164063
      ],
      "min": [
        -17.422710418701172,
        0.028313269838690758
      ],
      "type": "VEC2"
    },
    {
      "bufferView": 0,
      "byteOffset": 2734896,
      "componentType": 5125,
      "count": 4434,
      "type": "SCALAR"
    },
    {
      "bufferView": 2,
      "byteOffset": 4082916,
      "componentType": 5126,
      "count": 3615,
      "max": [
        289.3487854003906,
        197.12559509277344,
        97.10759735107422
      ],
      "min": [
        -121.44419860839844,
        -176.5727996826172,
        92.22309112548828
      ],
      "type": "VEC3"
    },
    {
      "bufferView": 2,
      "byteOffset": 4126296,
      "componentType": 5126,
      "count": 3615,
      "max": [
        1.0,
        1.0,
        1.0
      ],
      "min": [
        -1.0,
        -1.0,
        -1.0
      ],
      "type": "VEC3"
    },
    {
      "bufferView": 1,
      "byteOffset": 1063240,
      "componentType": 5126,
      "count": 3615,
      "max": [
        35.53226089477539,
        9.710760116577148
      ],
      "min": [
        -37.71149826049805,
        -4.723648967825302e-17
      ],
      "type": "VEC2"
    },
    {
      "bufferView": 0,
      "byteOffset": 2752632,
      "componentType": 5125,
      "count": 6618,
      "type": "SCALAR"
    },
    {
      "bufferView": 2,
      "byteOffset": 4169676,
      "componentType": 5126,
      "count": 34586,
      "max": [
        266.581787109375,
        172.0845947265625,
        131.13600158691406
      ],
      "min": [
        -56.98820877075195,
        -153.826904296875,
        96.63099670410156
      ],
      "type": "VEC3"
    },
    {
      "bufferView": 2,
      "byteOffset": 4584708,
      "componentType": 5126,
      "count": 34586,
      "max": [
        1.0,
        1.0,
        1.0
      ],
      "min": [
        -1.0,
        -1.0,
        -1.0
      ],
      "type": "VEC3"
    },
    {
      "bufferView": 1,
      "byteOffset": 1092160,
      "componentType": 5126,
      "count": 34586,
      "max": [
        34.793399810791016,
        36.13174819946289
      ],
      "min": [
        -34.793399810791016,
        -31.824260711669922
      ],
      "type": "VEC2"
    },
    {
      "bufferView": 0,
      "byteOffset": 2779104,
      "componentType": 5125,
      "count": 49920,
      "type": "SCALAR"
    },
    {
      "bufferView": 2,
      "byteOffset": 4999740,
      "componentType": 5126,
      "count": 33886,
      "max": [
        266.5818176269531,
        164.57664489746094,
        113.4729995727539
      ],
      "min": [
        -43.71621322631836,
        -165.67210388183594,
        96.99842071533203
      ],
      "type": "VEC3"
    },
    {
      "bufferView": 2,
      "byteOffset": 5406372,
      "componentType": 5126,
      "count": 33886,
      "max": [
        1.0,
        1.0,
        1.0
      ],
      "min": [
        -1.0,
        -1.0,
        -1.0
      ],
      "type": "VEC3"
    },
    {
      "bufferView": 1,
      "byteOffset": 1368848,
      "componentType": 5126,
      "count": 33886,
      "max": [
        1115508.0,
        1159211.0
      ],
      "min": [
        -1115508.0,
        -1115508.0
      ],
      "type": "VEC2"
    },
    {
      "bufferView": 0,
      "byteOffset": 2978784,
      "componentType": 5125,
      "count": 49920,
      "type": "SCALAR"
    },
    {
      "bufferView": 2,
      "byteOffset": 5813004,
      "componentType": 5126,
      "count": 23608,
      "max": [
        123.8688735961914,
        -2.0013668537139893,
        106.95999908447266
      ],
      "min": [
        113.51824951171875,
        -10.988397598266602,
        97.07349395751953
      ],
      "type": "VEC3"
    },
    {
      "bufferView": 2,
      "byteOffset": 6096300,
      "componentType": 5126,
      "count": 23608,
      "max": [
        1.0,
        1.0,
        1.0
      ],
      "min": [
        -1.0,
        -1.0,
        -1.0
      ],
      "type": "VEC3"
    },
    {
      "bufferView": 1,
      "byteOffset": 1639936,
      "componentType": 5126,
      "count": 23608,
      "max": [
        569665.1875,
        333486.5
      ],
      "min": [
        -569665.1875,
        -569468.5
      ],
      "type": "VEC2"
    },
    {
      "bufferView": 0,
      "byteOffset": 3178464,
      "componentType": 5125,
      "count": 38622,
      "type": "SCALAR"
    },
    {
      "bufferView": 2,
      "byteOffset": 6379596,
      "componentType": 5126,
      "count": 1516,
      "max": [
        123.88702392578125,
        -2.0563900470733643,
        107.0040054321289
      ],
      "min": [
        113.5000991821289,
        -10.932397842407227,
        101.8160171508789
      ],
      "type": "VEC3"
    },
    {
      "bufferView": 2,
      "byteOffset": 6397788,
      "componentType": 5126,
      "count": 1516,
      "max": [
        1.0,
        1.0,
        1.0
      ],
      "min": [
        -1.0,
        -1.0,
        -1.0
      ],
      "type": "VEC3"
    },
    {
      "bufferView": 1,
      "byteOffset": 1828800,
      "componentType": 5126,
      "count": 1516,
      "max": [
        567423.8125,
        350630.6875
      ],
      "min": [
        -567423.8125,
        -9.29034627006331e-13
      ],
      "type": "VEC2"
    },
    {
      "bufferView": 0,
      "byteOffset": 3332952,
      "componentType": 5125,
      "count": 3348,
      "type": "SCALAR"
    },
    {
      "bufferView": 2,
      "byteOffset": 6415980,
      "componentType": 5126,
      "count": 587,
      "max": [
        155.2230987548828,
        135.4576873779297,
        108.9150161743164
      ],
      "min": [
        -7.428215980529785,
        -8.109399795532227,
        96.35730743408203
      ],
      "type": "VEC3"
    },
    {
      "bufferView": 2,
      "byteOffset": 6423024,
      "componentType": 5126,
      "count": 587,
      "max": [
        1.0,
        1.0,
        2.832768813798407e-16
      ],
      "min": [
        -1.0,
        -1.0,
        -2.832768813798407e-16
      ],
      "type": "VEC3"
    },
    {
      "bufferView": 1,
      "byteOffset": 1840928,
      "componentType": 5126,
      "count": 587,
      "max": [
        1.0,
        1.0
      ],
      "min": [
        -3.5527141023169746e-15,
        -3.5527141023169746e-15
      ],
      "type": "VEC2"
    },
    {
      "bufferView": 0,
      "byteOffset": 3346344,
      "componentType": 5125,
      "count": 768,
      "type": "SCALAR"
    },
    {
      "bufferView": 2,
      "byteOffset": 6430068,
      "componentType": 5126,
      "count": 18,
      "max": [
        207.99378967285156,
        -82.25469970703125,
        99.16690826416016
      ],
      "min": [
        202.4051971435547,
        -86.5745849609375,
        97.07349395751953
      ],
      "type": "VEC3"
    },
    {
      "bufferView": 2,
      "byteOffset": 6430284,
      "componentType": 5126,
      "count": 18,
      "max": [
        0.8176092505455017,
        1.6311010386299622e-16,
        0.575797438621521
      ],
      "min": [
        -0.8176092505455017,
        -1.6311010386299622e-16,
        -0.575797438621521
      ],
      "type": "VEC3"
    },
    {
      "bufferView": 1,
      "byteOffset": 1845624,
      "componentType": 5126,
      "count": 18,
      "max": [
        1.0,
        1.0
      ],
      "min": [
        5.013630044459205e-08,
        0.0
      ],
      "type": "VEC2"
    },
    {
      "bufferView": 0,
      "byteOffset": 3349416,
      "componentType": 5125,
      "count": 24,
      "type": "SCALAR"
    },
    {
      "bufferView": 2,
      "byteOffset": 6430500,
      "componentType": 5126,
      "count": 314,
      "max": [
        165.46791076660156,
        79.88560485839844,
        102.69001007080078
      ],
      "min": [
        144.5186004638672,
        71.92362213134766,
        96.45230865478516
      ],
      "type": "VEC3"
    },
    {
      "bufferView": 2,
      "byteOffset": 6434268,
      "componentType": 5126,
      "count": 314,
      "max": [
        0.9929917454719543,
        0.9261594414710999,
        1.0
      ],
      "min": [
        -0.9929917454719543,
        -0.9261594414710999,
        -1.0
      ],
      "type": "VEC3"
    },
    {
      "bufferView": 1,
      "byteOffset": 1845768,
      "componentType": 5126,
      "count": 314,
      "max": [
        837992.5,
        350059.40625
      ],
      "min": [
        -837992.5,
        -837992.5
      ],
      "type": "VEC2"
    },
    {
      "bufferView": 0,
      "byteOffset": 3349512,
      "componentType": 5125,
      "count": 408,
      "type": "SCALAR"
    },
    {
      "bufferView": 2,
      "byteOffset": 6438036,
      "componentType": 5126,
      "count": 32412,
      "max": [
        180.2591094970703,
        149.58457946777344,
        99.77100372314453
      ],
      "min": [
        28.810495376586914,
        -99.9302978515625,
        93.76190948486328
      ],
      "type": "VEC3"
    },
    {
      "bufferView": 2,
      "byteOffset": 6826980,
      "componentType": 5126,
      "count": 32412,
      "max": [
        1.0,
        1.0,
        1.0
      ],
      "min": [
        -1.0,
        -1.0,
        -1.0
      ],
      "type": "VEC3"
    },
    {
      "bufferView": 1,
      "byteOffset": 1848280,
      "componentType": 5126,
      "count": 32412,
      "max": [
        1066382.0,
        704311.8125
      ],
      "min": [
        -1066382.0,
        -1066382.0
      ],
      "type": "VEC2"
    },
    {
      "bufferView": 0,
      "byteOffset": 3351144,
      "componentType": 5125,
      "count": 53856,
      "type": "SCALAR"
    },
    {
      "bufferView": 2,
      "byteOffset": 7215924,
      "componentType": 5126,
      "count": 502,
      "max": [
        227.4738006591797,
        112.57063293457031,
        101.41602325439453
      ],
      "min": [
        -12.08321475982666,
        -88.67788696289063,
        96.93170928955078
      ],
      "type": "VEC3"
    },
    {
      "bufferView": 2,
      "byteOffset": 7221948,
      "componentType": 5126,
      "count": 502,
      "max": [
        1.0,
        1.0,
        1.0
      ],
      "min": [
        -1.0,
        -1.0,
        -1.0
      ],
      "type": "VEC3"
    },
    {
      "bufferView": 1,
      "byteOffset": 2107576,
      "componentType": 5126,
      "count": 502,
      "max": [
        945094.6875,
        934589.5
      ],
      "min": [
        -945094.6875,
        -945094.6875
      ],
      "type": "VEC2"
    },
    {
      "bufferView": 0,
      "byteOffset": 3566568,
      "componentType": 5125,
      "count": 720,
      "type": "SCALAR"
    },
    {
      "bufferView": 2,
      "byteOffset": 7227972,
      "componentType": 5126,
      "count": 8930,
      "max": [
        21.87720489501953,
        93.99461364746094,
        127.47101593017578
      ],
      "min": [
        4.298774242401123,
        77.2076187133789,
        96.95301055908203
      ],
      "type": "VEC3"
    },
    {
      "bufferView": 2,
      "byteOffset": 7335132,
      "componentType": 5126,
      "count": 8930,
      "max": [
        1.0,
        1.0,
        1.0
      ],
      "min": [
        -1.0,
        -1.0,
        -1.0
      ],
      "type": "VEC3"
    },
    {
      "bufferView": 1,
      "byteOffset": 2111592,
      "componentType": 5126,
      "count": 8930,
      "max": [
        947313.875,
        402040.40625
      ],
      "min": [
        -947320.8125,
        -1.1723960561052515e-13
      ],
      "type": "VEC2"
    },
    {
      "bufferView": 0,
      "byteOffset": 3569448,
      "componentType": 5125,
      "count": 25536,
      "type": "SCALAR"
    },
    {
      "bufferView": 2,
      "byteOffset": 7442292,
      "componentType": 5126,
      "count": 1746,
      "max": [
        107.1238021850586,
        140.8666229248047,
        106.84400177001953
      ],
      "min": [
        87.76560974121094,
        114.95060729980469,
        96.97571563720703
      ],
      "type": "VEC3"
    },
    {
      "bufferView": 2,
      "byteOffset": 7463244,
      "componentType": 5126,
      "count": 1746,
      "max": [
        1.0,
        1.0,
        1.0
      ],
      "min": [
        -1.0,
        -1.0,
        -1.0
      ],
      "type": "VEC3"
    },
    {
      "bufferView": 1,
      "byteOffset": 2183032,
      "componentType": 5126,
      "count": 1746,
      "max": [
        1037032.0,
        1083735.0
      ],
      "min": [
        -1036340.0,
        -1037815.0
      ],
      "type": "VEC2"
    },
    {
      "bufferView": 0,
      "byteOffset": 3671592,
      "componentType": 5125,
      "count": 2040,
      "type": "SCALAR"
    },
    {
      "bufferView": 2,
      "byteOffset": 7484196,
      "componentType": 5126,
      "count": 8266,
      "max": [
        208.9995880126953,
        -80.78390502929688,
        100.0719985961914
      ],
      "min": [
        199.68519592285156,
        -90.55007934570313,
        96.5162124633789
      ],
      "type": "VEC3"
    },
    {
      "bufferView": 2,
      "byteOffset": 7583388,
      "componentType": 5126,
      "count": 8266,
      "max": [
        1.0,
        1.0,
        1.0
      ],
      "min": [
        -1.0,
        -1.0,
        -1.0
      ],
      "type": "VEC3"
    },
    {
      "bufferView": 1,
      "byteOffset": 2197000,
      "componentType": 5126,
      "count": 8266,
      "max": [
        393212.5,
        506681.90625
      ],
      "min": [
        -393202.90625,
        -334713.90625
      ],
      "type": "VEC2"
    },
    {
      "bufferView": 0,
      "byteOffset": 3679752,
      "componentType": 5125,
      "count": 8832,
      "type": "SCALAR"
    },
    {
      "bufferView": 2,
      "byteOffset": 7682580,
      "componentType": 5126,
      "count": 958,
      "max": [
        102.3616943359375,
        -23.320398330688477,
        130.3780059814453
      ],
      "min": [
        39.40790557861328,
        -150.95059204101563,
        95.52912139892578
      ],
      "type": "VEC3"
    },
    {
      "bufferView": 2,
      "byteOffset": 7694076,
      "componentType": 5126,
      "count": 958,
      "max": [
        1.0,
        1.0,
        0.8435412645339966
      ],
      "min": [
        -1.0,
        -1.0,
        -0.8435412645339966
      ],
      "type": "VEC3"
    },
    {
      "bufferView": 1,
      "byteOffset": 2263128,
      "componentType": 5126,
      "count": 958,
      "max": [
        1.0,
        1.0
      ],
      "min": [
        -1.10018998356054e-08,
        -1.7763570511584873e-15
      ],
      "type": "VEC2"
    },
    {
      "bufferView": 0,
      "byteOffset": 3715080,
      "componentType": 5125,
      "count": 1224,
      "type": "SCALAR"
    },
    {
      "bufferView": 2,
      "byteOffset": 7705572,
      "componentType": 5126,
      "count": 122,
      "max": [
        206.61180114746094,
        -80.86898803710938,
        100.0719985961914
      ],
      "min": [
        199.69740295410156,
        -89.99551391601563,
        98.00531768798828
      ],
      "type": "VEC3"
    },
    {
      "bufferView": 2,
      "byteOffset": 7707036,
      "componentType": 5126,
      "count": 122,
      "max": [
        1.2246469849340659e-16,
        2.832768813798407e-16,
        1.0
      ],
      "min": [
        -1.2246469849340659e-16,
        -2.832768813798407e-16,
        -1.0
      ],
      "type": "VEC3"
    },
    {
      "bufferView": 1,
      "byteOffset": 2270792,
      "componentType": 5126,
      "count": 122,
      "max": [
        1.0,
        1.0
      ],
      "min": [
        2.7673490166080228e-08,
        -3.5527141023169746e-15
      ],
      "type": "VEC2"
    },
    {
      "bufferView": 0,
      "byteOffset": 3719976,
      "componentType": 5125,
      "count": 216,
      "type": "SCALAR"
    },
    {
      "bufferView": 2,
      "byteOffset": 7708500,
      "componentType": 5126,
      "count": 1404,
      "max": [
        106.05139923095703,
        -7.127404689788818,
        106.40302276611328
      ],
      "min": [
        102.15599822998047,
        -11.032373428344727,
        96.38568878173828
      ],
      "type": "VEC3"
    },
    {
      "bufferView": 2,
      "byteOffset": 7725348,
      "componentType": 5126,
      "count": 1404,
      "max": [
        1.0,
        1.0,
        2.8588598108540036e-16
      ],
      "min": [
        -1.0,
        -1.0,
        -2.8588598108540036e-16
      ],
      "type": "VEC3"
    },
    {
      "bufferView": 0,
      "byteOffset": 3720840,
      "componentType": 5125,
      "count": 1740,
      "type": "SCALAR"
    },
    {
      "bufferView": 2,
      "byteOffset": 7742196,
      "componentType": 5126,
      "count": 7736,
      "max": [
        28.11240577697754,
        -24.448389053344727,
        135.57301330566406
      ],
      "min": [
        -16.8821964263916,
        -88.45950317382813,
        96.92740631103516
      ],
      "type": "VEC3"
    },
    {
      "bufferView": 2,
      "byteOffset": 7835028,
      "componentType": 5126,
      "count": 7736,
      "max": [
        1.0,
        1.0,
        1.0
      ],
      "min": [
        -1.0,
        -1.0,
        -1.0
      ],
      "type": "VEC3"
    },
    {
      "bufferView": 1,
      "byteOffset": 2271768,
      "componentType": 5126,
      "count": 7736,
      "max": [
        584577.3125,
        426010.1875
      ],
      "min": [
        -579571.125,
        -2.287058922508054e-14
      ],
      "type": "VEC2"
    },
    {
      "bufferView": 0,
      "byteOffset": 3727800,
      "componentType": 5125,
      "count": 19680,
      "type": "SCALAR"
    },
    {
      "bufferView": 2,
      "byteOffset": 7927860,
      "componentType": 5126,
      "count": 8864,
      "max": [
        63.1952018737793,
        -0.3083736002445221,
        131.32203674316406
      ],
      "min": [
        42.9644889831543,
        -33.686397552490234,
        127.85700225830078
      ],
      "type": "VEC3"
    },
    {
      "bufferView": 2,
      "byteOffset": 8034228,
      "componentType": 5126,
      "count": 8864,
      "max": [
        0.996208131313324,
        0.9986515641212463,
        1.0
      ],
      "min": [
        -0.996208131313324,
        -0.9986515641212463,
        -1.0
      ],
      "type": "VEC3"
    },
    {
      "bufferView": 0,
      "byteOffset": 3806520,
      "componentType": 5125,
      "count": 33606,
      "type": "SCALAR"
    },
    {
      "bufferView": 2,
      "byteOffset": 8140596,
      "componentType": 5126,
      "count": 33745,
      "max": [
        266.6498107910156,
        175.61363220214844,
        107.66602325439453
      ],
      "min": [
        -63.227230072021484,
        -165.67210388183594,
        97.06079864501953
      ],
      "type": "VEC3"
    },
    {
      "bufferView": 2,
      "byteOffset": 8545536,
      "componentType": 5126,
      "count": 33745,
      "max": [
        1.0,
        1.0,
        1.0
      ],
      "min": [
        -1.0,
        -1.0,
        -1.0
      ],
      "type": "VEC3"
    },
    {
      "bufferView": 1,
      "byteOffset": 2333656,
      "componentType": 5126,
      "count": 33745,
      "max": [
        1151674.0,
        1195928.0
      ],
      "min": [
        -1151674.0,
        -1151674.0
      ],
      "type": "VEC2"
    },
    {
      "bufferView": 0,
      "byteOffset": 3940944,
      "componentType": 5125,
      "count": 49920,
      "type": "SCALAR"
    },
    {
      "bufferView": 2,
      "byteOffset": 8950476,
      "componentType": 5126,
      "count": 2395,
      "max": [
        123.82894134521484,
        -2.0613949298858643,
        106.95999908447266
      ],
      "min": [
        113.55818176269531,
        -10.927392959594727,
        97.07349395751953
      ],
      "type": "VEC3"
    },
    {
      "bufferView": 2,
      "byteOffset": 8979216,
      "componentType": 5126,
      "count": 2395,
      "max": [
        1.0,
        1.0,
        1.0
      ],
      "min": [
        -1.0,
        -1.0,
        -1.0
      ],
      "type": "VEC3"
    },
    {
      "bufferView": 1,
      "byteOffset": 2603616,
      "componentType": 5126,
      "count": 2395,
      "max": [
        1.0,
        1.0
      ],
      "min": [
        -3.197441972107272e-14,
        -3.907985046680551e-14
      ],
      "type": "VEC2"
    },
    {
      "bufferView": 0,
      "byteOffset": 4140624,
      "componentType": 5125,
      "count": 3750,
      "type": "SCALAR"
    },
    {
      "bufferView": 2,
      "byteOffset": 9007956,
      "componentType": 5126,
      "count": 762,
      "max": [
        52.63129806518555,
        -101.47769165039063,
        102.42301177978516
      ],
      "min": [
        36.63678741455078,
        -111.14590454101563,
        97.07630157470703
      ],
      "type": "VEC3"
    },
    {
      "bufferView": 2,
      "byteOffset": 9017100,
      "componentType": 5126,
      "count": 762,
      "max": [
        1.0,
        1.0,
        1.0
      ],
      "min": [
        -1.0,
        -1.0,
        -1.0
      ],
      "type": "VEC3"
    },
    {
      "bufferView": 1,
      "byteOffset": 2622776,
      "componentType": 5126,
      "count": 762,
      "max": [
        271256.8125,
        397709.8125
      ],
      "min": [
        -271256.8125,
        -243271.296875
      ],
      "type": "VEC2"
    },
    {
      "bufferView": 0,
      "byteOffset": 4155624,
      "componentType": 5125,
      "count": 1080,
      "type": "SCALAR"
    },
    {
      "bufferView": 2,
      "byteOffset": 9026244,
      "componentType": 5126,
      "count": 4302,
      "max": [
        80.97840881347656,
        138.5576629638672,
        98.8066177368164
      ],
      "min": [
        70.0370864868164,
        37.129615783691406,
        97.09760284423828
      ],
      "type": "VEC3"
    },
    {
      "bufferView": 2,
      "byteOffset": 9077868,
      "componentType": 5126,
      "count": 4302,
      "max": [
        1.0,
        1.0,
        1.0
      ],
      "min": [
        -1.0,
        -1.0,
        -1.0
      ],
      "type": "VEC3"
    },
    {
      "bufferView": 1,
      "byteOffset": 2628872,
      "componentType": 5126,
      "count": 4302,
      "max": [
        1030249.0,
        1073593.0
      ],
      "min": [
        -1030249.0,
        -1030249.0
      ],
      "type": "VEC2"
    },
    {
      "bufferView": 0,
      "byteOffset": 4159944,
      "componentType": 5125,
      "count": 6120,
      "type": "SCALAR"
    },
    {
      "bufferView": 2,
      "byteOffset": 9129492,
      "componentType": 5126,
      "count": 526,
      "max": [
        180.1641082763672,
        35.33960723876953,
        139.11903381347656
      ],
      "min": [
        39.38959503173828,
        -37.535396575927734,
        95.52912139892578
      ],
      "type": "VEC3"
    },
    {
      "bufferView": 2,
      "byteOffset": 9135804,
      "componentType": 5126,
      "count": 526,
      "max": [
        0.9999954700469971,
        1.0,
        1.0
      ],
      "min": [
        -0.9999954700469971,
        -1.0,
        -1.0
      ],
      "type": "VEC3"
    },
    {
      "bufferView": 1,
      "byteOffset": 2663288,
      "componentType": 5126,
      "count": 526,
      "max": [
        262236.40625,
        427222.6875
      ],
      "min": [
        -262176.5,
        -499807.09375
      ],
      "type": "VEC2"
    },
    {
      "bufferView": 0,
      "byteOffset": 4184424,
      "componentType": 5125,
      "count": 1020,
      "type": "SCALAR"
    }
  ],
  "asset": {
    "extras": {
      "author": "Katydid (https://sketchfab.com/Katydid.)",
      "license": "CC-BY-4.0 (http://creativecommons.org/licenses/by/4.0/)",
      "source": "https://sketchfab.com/3d-models/city-map-free-00c4aa34478b492bafa37bd198587d14",
      "title": "City map free"
    },
    "generator": "Sketchfab-16.95.0",
    "version": "2.0"
  },
  "bufferViews": [
    {
      "buffer": 0,
      "byteLength": 4188504,
      "name": "floatBufferViews",
      "target": 34963
    },
    {
      "buffer": 0,
      "byteLength": 2667496,
      "byteOffset": 4188504,
      "byteStride": 8,
      "name": "floatBufferViews",
      "target": 34962
    },
    {
      "buffer": 0,
      "byteLength": 9142116,
      "byteOffset": 6856000,
      "byteStride": 12,
      "name": "floatBufferViews",
      "target": 34962
    }
  ],
  "buffers": [
    {
      "byteLength": 15998116,
      "uri": "scene.bin"
    }
  ],
  "extensionsUsed": [
    "KHR_materials_specular"
  ],
  "images": [
    {
      "uri": "textures/default_bldg19_bldg_block_16_19_baseColor.jpeg"
    },
    {
      "uri": "textures/default_bldg19_bldg_block_16_baseColor.jpeg"
    },
    {
      "uri": "textures/default_bldg19_bldg_block_16_specularf0.png"
    },
    {
      "uri": "textures/default_bldg19_bldg_block_16_27_baseColor.jpeg"
    },
    {
      "uri": "textures/default_bldg19_bldg_block_16_24_baseColor.jpeg"
    },
    {
      "uri": "textures/default_bldg19_bldg_block_16_0_baseColor.jpeg"
    },
    {
      "uri": "textures/default_bldg19_bldg_block_16_0_specularf0.png"
    },
    {
      "uri": "textures/default_bldg19_bldg_block_16_12_baseColor.jpeg"
    },
    {
      "uri": "textures/default_bldg19_bldg_block_16_3_baseColor.jpeg"
    },
    {
      "uri": "textures/default_bldg19_bldg_block_16_5_baseColor.jpeg"
    },
    {
      "uri": "textures/default_bldg_b3_baseColor.jpeg"
    },
    {
      "uri": "textures/default_bldg19_bldg_block_16_9_baseColor.jpeg"
    },
    {
      "uri": "textures/default_bldg19_bldg_block_16_22_baseColor.jpeg"
    },
    {
      "uri": "textures/default_bldg19_bldg_block_16_2_baseColor.jpeg"
    },
    {
      "uri": "textures/default_bldg19_bldg_block_16_2_specularf0.png"
    },
    {
      "uri": "textures/default_bldg19_bldg_block_16_6_baseColor.jpeg"
    },
    {
      "uri": "textures/default_bldg19_bldg_block_16_1_baseColor.jpeg"
    },
    {
      "uri": "textures/default_bldg19_bldg_block_16_1_specularf0.png"
    },
    {
      "uri": "textures/default_bldg19_bldg_block_16_26_baseColor.jpeg"
    },
    {
      "uri": "textures/default_bldg19_bldg_block_16_11_baseColor.jpeg"
    },
    {
      "uri": "textures/default_bldg19_bldg_block_16_8_baseColor.jpeg"
    },
    {
      "uri": "textures/default_bldg19_bldg_block_16_20_baseColor.jpeg"
    },
    {
      "uri": "textures/default_bldg19_bldg_block_16_15_baseColor.jpeg"
    },
    {
      "uri": "textures/default_bldg19_bldg_block_16_7_baseColor.jpeg"
    },
    {
      "uri": "textures/default_bldg19_bldg_block_16_10_baseColor.jpeg"
    },
    {
      "uri": "textures/default_bldg19_bldg_block_16_30_baseColor.jpeg"
    }
  ],
  "materials": [
    {
      "alphaMode": "BLEND",
      "name": "edge_color000255",
      "pbrMetallicRoughness": {
        "baseColorFactor": [
          1.0,
          1.0,
          1.0,
          0.0
        ],
        "metallicFactor": 0.0,
        "roughnessFactor": 0.6
      }
    },
    {
      "alphaMode": "BLEND",
      "name": "water",
      "pbrMetallicRoughness": {
        "baseColorFactor": [
          0.07785461049406459,
          0.15764299648706684,
          0.222571351038562,
          0.560784
        ],
        "metallicFactor": 0.0,
        "roughnessFactor": 0.6
      }
    },
    {
      "name": "default_bldg19_bldg_block_16_19",
      "pbrMetallicRoughness": {
        "baseColorTexture": {
          "index": 0
        },
        "metallicFactor": 0.0,
        "roughnessFactor": 0.6
      }
    },
    {
      "extensions": {
        "KHR_materials_specular": {
          "specularColorFactor": [
            1.0,
            1.0,
            1.0
          ],
          "specularFactor": 0.3125,
          "specularTexture": {
            "index": 2
          }
        }
      },
      "name": "default_bldg19_bldg_block_16",
      "pbrMetallicRoughness": {
        "baseColorFactor": [
          0.6031976744186046,
          0.6031976744186046,
          0.6031976744186046,
          1.0
        ],
        "baseColorTexture": {
          "index": 1
        },
        "metallicFactor": 0.0
      }
    },
    {
      "name": "default_bldg19_bldg_block_16_27",
      "pbrMetallicRoughness": {
        "baseColorTexture": {
          "index": 3
        },
        "metallicFactor": 0.0,
        "roughnessFactor": 0.6
      }
    },
    {
      "name": "default_bldg19_bldg_block_16_24",
      "pbrMetallicRoughness": {
        "baseColorTexture": {
          "index": 4
        },
        "metallicFactor": 0.0,
        "roughnessFactor": 0.6
      }
    },
    {
      "extensions": {
        "KHR_materials_specular": {
          "specularColorFactor": [
            1.0,
            1.0,
            1.0
          ],
          "specularFactor": 1.0,
          "specularTexture": {
            "index": 6
          }
        }
      },
      "name": "default_bldg19_bldg_block_16_0",
      "pbrMetallicRoughness": {
        "baseColorTexture": {
          "index": 5
        },
        "metallicFactor": 0.0,
        "roughnessFactor": 0.6
      }
    },
    {
      "name": "default_bldg19_bldg_block_16_12",
      "pbrMetallicRoughness": {
        "baseColorTexture": {
          "index": 7
        },
        "metallicFactor": 0.0,
        "roughnessFactor": 0.6
      }
    },
    {
      "extensions": {
        "KHR_materials_specular": {
          "specularColorFactor": [
            1.0,
            1.0,
            1.0
          ],
          "specularFactor": 1.0,
          "specularTexture": {
            "index": 2
          }
        }
      },
      "name": "default_bldg19_bldg_block_16_3",
      "pbrMetallicRoughness": {
        "baseColorTexture": {
          "index": 8
        },
        "metallicFactor": 0.0,
        "roughnessFactor": 0.6
      }
    },
    {
      "name": "default_bldg19_bldg_block_16_5",
      "pbrMetallicRoughness": {
        "baseColorTexture": {
          "index": 9
        },
        "metallicFactor": 0.0,
        "roughnessFactor": 0.6
      }
    },
    {
      "name": "default_bldg_b3",
      "pbrMetallicRoughness": {
        "baseColorTexture": {
          "index": 10
        },
        "metallicFactor": 0.0,
        "roughnessFactor": 0.6
      }
    },
    {
      "name": "default_bldg19_bldg_block_16_9",
      "pbrMetallicRoughness": {
        "baseColorTexture": {
          "index": 11
        },
        "metallicFactor": 0.0,
        "roughnessFactor": 0.6
      }
    },
    {
      "name": "default_bldg19_bldg_block_16_22",
      "pbrMetallicRoughness": {
        "baseColorTexture": {
          "index": 12
        },
        "metallicFactor": 0.0,
        "roughnessFactor": 0.6
      }
    },
    {
      "extensions": {
        "KHR_materials_specular": {
          "specularColorFactor": [
            1.0,
            1.0,
            1.0
          ],
          "specularFactor": 1.0,
          "specularTexture": {
            "index": 14
          }
        }
      },
      "name": "default_bldg19_bldg_block_16_2",
      "pbrMetallicRoughness": {
        "baseColorTexture": {
          "index": 13
        },
        "metallicFactor": 0.0,
        "roughnessFactor": 0.6
      }
    },
    {
      "name": "default_bldg19_bldg_block_16_6",
      "pbrMetallicRoughness": {
        "baseColorTexture": {
          "index": 15
        },
        "metallicFactor": 0.0,
        "roughnessFactor": 0.6
      }
    },
    {
      "extensions": {
        "KHR_materials_specular": {
          "specularColorFactor": [
            1.0,
            1.0,
            1.0
          ],
          "specularFactor": 1.0,
          "specularTexture": {
            "index": 17
          }
        }
      },
      "name": "default_bldg19_bldg_block_16_1",
      "pbrMetallicRoughness": {
        "baseColorTexture": {
          "index": 16
        },
        "metallicFactor": 0.0,
        "roughnessFactor": 0.6
      }
    },
    {
      "name": "default_bldg19_bldg_block_16_26",
      "pbrMetallicRoughness": {
        "baseColorTexture": {
          "index": 18
        },
        "metallicFactor": 0.0,
        "roughnessFactor": 0.6
      }
    },
    {
      "name": "default_bldg19_bldg_block_16_11",
      "pbrMetallicRoughness": {
        "baseColorTexture": {
          "index": 19
        },
        "metallicFactor": 0.0,
        "roughnessFactor": 0.6
      }
    },
    {
      "alphaMode": "BLEND",
      "name": "default_windows_bldg10",
      "pbrMetallicRoughness": {
        "baseColorFactor": [
          0.0,
          0.0,
          0.0,
          0.901961
        ],
        "metallicFactor": 0.0,
        "roughnessFactor": 0.6
      }
    },
    {
      "name": "default_bldg19_bldg_block_16_8",
      "pbrMetallicRoughness": {
        "baseColorTexture": {
          "index": 20
        },
        "metallicFactor": 0.0,
        "roughnessFactor": 0.6
      }
    },
    {
      "name": "default_sony_sign",
      "pbrMetallicRoughness": {
        "baseColorFactor": [
          0.0,
          0.00392157,
          0.00392157,
          1.0
        ],
        "metallicFactor": 0.0,
        "roughnessFactor": 0.6
      }
    },
    {
      "extensions": {
        "KHR_materials_specular": {
          "specularColorFactor": [
            1.0,
            1.0,
            1.0
          ],
          "specularFactor": 1.0,
          "specularTexture": {
            "index": 14
          }
        }
      },
      "name": "default_bldg19_bldg_block_16_20",
      "pbrMetallicRoughness": {
        "baseColorTexture": {
          "index": 21
        },
        "metallicFactor": 0.0,
        "roughnessFactor": 0.6
      }
    },
    {
      "name": "default_bldg19_bldg_block_16_15",
      "pbrMetallicRoughness": {
        "baseColorTexture": {
          "index": 22
        },
        "metallicFactor": 0.0,
        "roughnessFactor": 0.6
      }
    },
    {
      "name": "default_bldg19_bldg_block_16_7",
      "pbrMetallicRoughness": {
        "baseColorTexture": {
          "index": 23
        },
        "metallicFactor": 0.0,
        "roughnessFactor": 0.6
      }
    },
    {
      "extensions": {
        "KHR_materials_specular": {
          "specularColorFactor": [
            1.0,
            1.0,
            1.0
          ],
          "specularFactor": 1.0,
          "specularTexture": {
            "index": 17
          }
        }
      },
      "name": "default_bldg19_bldg_block_16_10",
      "pbrMetallicRoughness": {
        "baseColorTexture": {
          "index": 24
        },
        "metallicFactor": 0.0,
        "roughnessFactor": 0.6
      }
    },
    {
      "extensions": {
        "KHR_materials_specular": {
          "specularColorFactor": [
            1.0,
            1.0,
            1.0
          ],
          "specularFactor": 1.0,
          "specularTexture": {
            "index": 2
          }
        }
      },
      "name": "default_bldg19_bldg_block_16_30",
      "pbrMetallicRoughness": {
        "baseColorTexture": {
          "index": 25
        },
        "metallicFactor": 0.0,
        "roughnessFactor": 0.6
      }
    }
  ],
  "meshes": [
    {
      "name": "Material3",
      "primitives": [
        {
          "attributes": {
            "POSITION": 0
          },
          "indices": 1,
          "material": 0,
          "mode": 1
        }
      ]
    },
    {
      "name": "Material3",
      "primitives": [
        {
          "attributes": {
            "POSITION": 2
          },
          "indices": 3,
          "material": 0,
          "mode": 1
        }
      ]
    },
    {
      "name": "Material2",
      "primitives": [
        {
          "attributes": {
            "POSITION": 4
          },
          "indices": 5,
          "material": 0,
          "mode": 1
        }
      ]
    },
    {
      "name": "Material2",
      "primitives": [
        {
          "attributes": {
            "NORMAL": 7,
            "POSITION": 6
          },
          "indices": 8,
          "material": 1,
          "mode": 4
        }
      ]
    },
    {
      "name": "Material2",
      "primitives": [
        {
          "attributes": {
            "NORMAL": 10,
            "POSITION": 9,
            "TEXCOORD_0": 11
          },
          "indices": 12,
          "material": 2,
          "mode": 4
        }
      ]
    },
    {
      "name": "Material2",
      "primitives": [
        {
          "attributes": {
            "NORMAL": 14,
            "POSITION": 13,
            "TEXCOORD_0": 15
          },
          "indices": 16,
          "material": 2,
          "mode": 4
        }
      ]
    },
    {
      "name": "Material2",
      "primitives": [
        {
          "attributes": {
            "NORMAL": 18,
            "POSITION": 17,
            "TEXCOORD_0": 19
          },
          "indices": 20,
          "material": 2,
          "mode": 4
        }
      ]
    },
    {
      "name": "Material2",
      "primitives": [
        {
          "attributes": {
            "NORMAL": 22,
            "POSITION": 21,
            "TEXCOORD_0": 23
          },
          "indices": 24,
          "material": 3,
          "mode": 4
        }
      ]
    },
    {
      "name": "Material2",
      "primitives": [
        {
          "attributes": {
            "NORMAL": 26,
            "POSITION": 25,
            "TEXCOORD_0": 27
          },
          "indices": 28,
          "material": 4,
          "mode": 4
        }
      ]
    },
    {
      "name": "Material2",
      "primitives": [
        {
          "attributes": {
            "NORMAL": 30,
            "POSITION": 29,
            "TEXCOORD_0": 31
          },
          "indices": 32,
          "material": 5,
          "mode": 4
        }
      ]
    },
    {
      "name": "Material2",
      "primitives": [
        {
          "attributes": {
            "NORMAL": 34,
            "POSITION": 33,
            "TEXCOORD_0": 35
          },
          "indices": 36,
          "material": 6,
          "mode": 4
        }
      ]
    },
    {
      "name": "Material2",
      "primitives": [
        {
          "attributes": {
            "NORMAL": 38,
            "POSITION": 37,
            "TEXCOORD_0": 39
          },
          "indices": 40,
          "material": 7,
          "mode": 4
        }
      ]
    },
    {
      "name": "Material2",
      "primitives": [
        {
          "attributes": {
            "NORMAL": 42,
            "POSITION": 41,
            "TEXCOORD_0": 43
          },
          "indices": 44,
          "material": 8,
          "mode": 4
        }
      ]
    },
    {
      "name": "Material2",
      "primitives": [
        {
          "attributes": {
            "NORMAL": 46,
            "POSITION": 45,
            "TEXCOORD_0": 47
          },
          "indices": 48,
          "material": 9,
          "mode": 4
        }
      ]
    },
    {
      "name": "Material2",
      "primitives": [
        {
          "attributes": {
            "NORMAL": 50,
            "POSITION": 49,
            "TEXCOORD_0": 51
          },
          "indices": 52,
          "material": 10,
          "mode": 4
        }
      ]
    },
    {
      "name": "Material2",
      "primitives": [
        {
          "attributes": {
            "NORMAL": 54,
            "POSITION": 53,
            "TEXCOORD_0": 55
          },
          "indices": 56,
          "material": 11,
          "mode": 4
        }
      ]
    },
    {
      "name": "Material2",
      "primitives": [
        {
          "attributes": {
            "NORMAL": 58,
            "POSITION": 57,
            "TEXCOORD_0": 59
          },
          "indices": 60,
          "material": 12,
          "mode": 4
        }
      ]
    },
    {
      "name": "Material2",
      "primitives": [
        {
          "attributes": {
            "NORMAL": 62,
            "POSITION": 61,
            "TEXCOORD_0": 63
          },
          "indices": 64,
          "material": 13,
          "mode": 4
        }
      ]
    },
    {
      "name": "Material2",
      "primitives": [
        {
          "attributes": {
            "NORMAL": 66,
            "POSITION": 65,
            "TEXCOORD_0": 67
          },
          "indices": 68,
          "material": 14,
          "mode": 4
        }
      ]
    },
    {
      "name": "Material2",
      "primitives": [
        {
          "attributes": {
            "NORMAL": 70,
            "POSITION": 69,
            "TEXCOORD_0": 71
          },
          "indices": 72,
          "material": 15,
          "mode": 4
        }
      ]
    },
    {
      "name": "Material2",
      "primitives": [
        {
          "attributes": {
            "NORMAL": 74,
            "POSITION": 73,
            "TEXCOORD_0": 75
          },
          "indices": 76,
          "material": 16,
          "mode": 4
        }
      ]
    },
    {
      "name": "Material2",
      "primitives": [
        {
          "attributes": {
            "NORMAL": 78,
            "POSITION": 77,
            "TEXCOORD_0": 79
          },
          "indices": 80,
          "material": 17,
          "mode": 4
        }
      ]
    },
    {
      "name": "Material2",
      "primitives": [
        {
          "attributes": {
            "NORMAL": 82,
            "POSITION": 81
          },
          "indices": 83,
          "material": 18,
          "mode": 4
        }
      ]
    },
    {
      "name": "Material2",
      "primitives": [
        {
          "attributes": {
            "NORMAL": 85,
            "POSITION": 84,
            "TEXCOORD_0": 86
          },
          "indices": 87,
          "material": 19,
          "mode": 4
        }
      ]
    },
    {
      "name": "Material2",
      "primitives": [
        {
          "attributes": {
            "NORMAL": 89,
            "POSITION": 88
          },
          "indices": 90,
          "material": 20,
          "mode": 4
        }
      ]
    },
    {
      "name": "Material2",
      "primitives": [
        {
          "attributes": {
            "NORMAL": 92,
            "POSITION": 91,
            "TEXCOORD_0": 93
          },
          "indices": 94,
          "material": 21,
          "mode": 4
        }
      ]
    },
    {
      "name": "Material2",
      "primitives": [
        {
          "attributes": {
            "NORMAL": 96,
            "POSITION": 95,
            "TEXCOORD_0": 97
          },
          "indices": 98,
          "material": 22,
          "mode": 4
        }
      ]
    },
    {
      "name": "Material2",
      "primitives": [
        {
          "attributes": {
            "NORMAL": 100,
            "POSITION": 99,
            "TEXCOORD_0": 101
          },
          "indices": 102,
          "material": 23,
          "mode": 4
        }
      ]
    },
    {
      "name": "Material2",
      "primitives": [
        {
          "attributes": {
            "NORMAL": 104,
            "POSITION": 103,
            "TEXCOORD_0": 105
          },
          "indices": 106,
          "material": 24,
          "mode": 4
        }
      ]
    },
    {
      "name": "Material2",
      "primitives": [
        {
          "attributes": {
            "NORMAL": 108,
            "POSITION": 107,
            "TEXCOORD_0": 109
          },
          "indices": 110,
          "material": 25,
          "mode": 4
        }
      ]
    }
  ],
  "nodes": [
    {
      "children": [
        1
      ],
      "matrix": [
        1.0,
        0.0,
        0.0,
        0.0,
        0.0,
        2.220446049250313e-16,
        -1.0,
        0.0,
        0.0,
        1.0,
        2.220446049250313e-16,
        0.0,
        0.0,
        0.0,
        0.0,
        1.0
      ],
      "name": "Sketchfab_model"
    },
    {
      "children": [
        2,
        3,
        4,
        5,
        6,
        7,
        8,
        9,
        10,
        11,
        12,
        13,
        14,
        15,
        16,
        17,
        18,
        19,
        20,
        21,
        22,
        23,
        24,
        25,
        26,
        27,
        28,
        29,
        30,
        31,
        32
      ],
      "name": "Collada visual scene group"
    },
    {
      "mesh": 0,
      "name": "Material3"
    },
    {
      "mesh": 1,
      "name": "Material3"
    },
    {
      "mesh": 2,
      "name": "Material2"
    },
    {
      "mesh": 3,
      "name": "Material2"
    },
    {
      "mesh": 4,
      "name": "Material2"
    },
    {
      "mesh": 5,
      "name": "Material2"
    },
    {
      "mesh": 6,
      "name": "Material2"
    },
    {
      "mesh": 7,
      "name": "Material2"
    },
    {
      "mesh": 8,
      "name": "Material2"
    },
    {
      "mesh": 9,
      "name": "Material2"
    },
    {
      "mesh": 10,
      "name": "Material2"
    },
    {
      "mesh": 11,
      "name": "Material2"
    },
    {
      "mesh": 12,
      "name": "Material2"
    },
    {
      "mesh": 13,
      "name": "Material2"
    },
    {
      "mesh": 14,
      "name": "Material2"
    },
    {
      "mesh": 15,
      "name": "Material2"
    },
    {
      "mesh": 16,
      "name": "Material2"
    },
    {
      "mesh": 17,
      "name": "Material2"
    },
    {
      "mesh": 18,
      "name": "Material2"
    },
    {
      "mesh": 19,
      "name": "Material2"
    },
    {
      "mesh": 20,
      "name": "Material2"
    },
    {
      "mesh": 21,
      "name": "Material2"
    },
    {
      "mesh": 22,
      "name": "Material2"
    },
    {
      "mesh": 23,
      "name": "Material2"
    },
    {
      "mesh": 24,
      "name": "Material2"
    },
    {
      "mesh": 25,
      "name": "Material2"
    },
    {
      "mesh": 26,
      "name": "Material2"
    },
    {
      "mesh": 27,
      "name": "Material2"
    },
    {
      "mesh": 28,
      "name": "Material2"
    },
    {
      "mesh": 29,
      "name": "Material2"
    },
    {
      "children": [
        33
      ],
      "name": "SketchUp"
    },
    {
      "children": [
        34
      ],
      "matrix": [
        0.9025604,
        0.4305632,
        -2.775558e-17,
        0.0,
        -0.2197288,
        0.4606025,
        0.8599794,
        0.0,
        0.3702755,
        -0.7761834,
        0.5103287,
        0.0,
        365.394,
        -490.9756,
        329.5481,
        1.0
      ],
      "name": "skp_camera_Last_Saved_SketchUp_View"
    },
    {
      "name": "ID1"
    }
  ],
  "samplers": [
    {
      "magFilter": 9729,
      "minFilter": 9987,
      "wrapS": 10497,
      "wrapT": 10497
    }
  ],
  "scene": 0,
  "scenes": [
    {
      "name": "Sketchfab_Scene",
      "nodes": [
        0
      ]
    }
  ],
  "textures": [
    {
      "sampler": 0,
      "source": 0
    },
    {
      "sampler": 0,
      "source": 1
    },
    {
      "sampler": 0,
      "source": 2
    },
    {
      "sampler": 0,
      "source": 3
    },
    {
      "sampler": 0,
      "source": 4
    },
    {
      "sampler": 0,
      "source": 5
    },
    {
      "sampler": 0,
      "source": 6
    },
    {
      "sampler": 0,
      "source": 7
    },
    {
      "sampler": 0,
      "source": 8
    },
    {
      "sampler": 0,
      "source": 9
    },
    {
      "sampler": 0,
      "source": 10
    },
    {
      "sampler": 0,
      "source": 11
    },
    {
      "sampler": 0,
      "source": 12
    },
    {
      "sampler": 0,
      "source": 13
    },
    {
      "sampler": 0,
      "source": 14
    },
    {
      "sampler": 0,
      "source": 15
    },
    {
      "sampler": 0,
      "source": 16
    },
    {
      "sampler": 0,
      "source": 17
    },
    {
      "sampler": 0,
      "source": 18
    },
    {
      "sampler": 0,
      "source": 19
    },
    {
      "sampler": 0,
      "source": 20
    },
    {
      "sampler": 0,
      "source": 21
    },
    {
      "sampler": 0,
      "source": 22
    },
    {
      "sampler": 0,
      "source": 23
    },
    {
      "sampler": 0,
      "source": 24
    },
    {
      "sampler": 0,
      "source": 25
    }
  ]
}
